<?xml version="1.0" encoding="UTF-8" standalone="no"?>
<svg
   xmlns:dc="http://purl.org/dc/elements/1.1/"
   xmlns:cc="http://creativecommons.org/ns#"
   xmlns:rdf="http://www.w3.org/1999/02/22-rdf-syntax-ns#"
   xmlns:svg="http://www.w3.org/2000/svg"
   xmlns="http://www.w3.org/2000/svg"
   version="1.1"
   id="svg2"
   viewBox="0 0 338.00001 338.00001"
   height="338"
   width="338">
  <defs
     id="defs4">
    <clipPath
       clipPathUnits="userSpaceOnUse"
       id="clipPath4150">
      <path
         d="M 0,750 750,750 750,0 0,0 0,750 Z"
         id="path4152" />
    </clipPath>
    <clipPath
       clipPathUnits="userSpaceOnUse"
       id="clipPath4210">
      <path
         d="M 0,750 750,750 750,0 0,0 0,750 Z"
         id="path4212" />
    </clipPath>
  </defs>
  <metadata
     id="metadata7">
    <rdf:RDF>
      <cc:Work
         rdf:about="">
        <dc:format>image/svg+xml</dc:format>
        <dc:type
           rdf:resource="http://purl.org/dc/dcmitype/StillImage" />
        <dc:title></dc:title>
      </cc:Work>
    </rdf:RDF>
  </metadata>
  <g
     transform="translate(211.60715,-603.11221)"
     id="layer1">
    <g
       id="g4144"
       transform="matrix(0.45066667,0,0,-0.45066667,-211.60715,941.11221)">
      <g
         id="g4146">
        <g
           id="g4148"
           clip-path="url(#clipPath4150)">
          <g
             id="g4154"
             transform="translate(375,750)">
            <path
               d="m 0,0 c 206.968,0 375,-168.032 375,-375 0,-206.968 -168.032,-375 -375,-375 -206.968,0 -375,168.032 -375,375 0,206.968 168.032,375 375,375"
               style="fill:#333333;fill-opacity:1;fill-rule:evenodd;stroke:none"
               id="path4156" />
          </g>
          <g
             id="g4158"
             transform="translate(37.148,294.199)">
            <path
               d="m 0,0 0,14.883 16.29,0 0,133.477 -16.29,0 0,15.117 54.258,0 c 17.032,0 29.297,-3.008 36.797,-9.024 7.5,-6.015 11.25,-15.82 11.25,-29.414 l 0,-15.351 c 0,-13.985 -3.164,-24.082 -9.492,-30.293 -6.328,-6.211 -16.602,-9.317 -30.82,-9.317 l -25.196,0 0,-55.195 16.055,0 L 52.852,0 0,0 Z m 36.797,85.43 15.821,0 c 11.328,0 19.082,1.797 23.261,5.391 4.18,3.593 6.27,10.117 6.27,19.57 l 0,15.351 c 0,8.204 -2.07,13.946 -6.211,17.227 -4.141,3.281 -11.523,4.922 -22.148,4.922 l -16.993,0 0,-62.461 z"
               style="fill:#ebebeb;fill-opacity:1;fill-rule:nonzero;stroke:none"
               id="path4160" />
          </g>
          <g
             id="g4162"
             transform="translate(216.094,326.309)">
            <path
               d="m 0,0 c -1.016,-11.094 -4.336,-19.532 -9.961,-25.313 -5.625,-5.781 -13.36,-8.672 -23.203,-8.672 -10.86,0 -19.141,3.535 -24.844,10.606 -5.703,7.07 -8.555,17.363 -8.555,30.879 l 0,22.031 c 0,14.375 2.891,25.527 8.672,33.457 5.781,7.93 13.867,11.894 24.258,11.894 11.094,0 19.59,-3.769 25.488,-11.308 5.899,-7.539 8.848,-18.457 8.848,-32.754 l 0,-14.18 -48.516,0 0,-6.797 c 0,-9.843 1.27,-17.011 3.809,-21.504 2.539,-4.492 6.543,-6.738 12.012,-6.738 4.453,0 7.949,1.524 10.488,4.57 2.539,3.047 4.16,7.657 4.863,13.829 L 0,0 Z m -47.813,30.234 30.469,0 0,6.797 c 0,6.953 -1.309,12.402 -3.926,16.348 -2.617,3.945 -6.191,5.917 -10.722,5.917 -5.469,0 -9.473,-2.011 -12.012,-6.035 -2.539,-4.023 -3.809,-10.488 -3.809,-19.394 l 0,-3.633 z"
               style="fill:#ebebeb;fill-opacity:1;fill-rule:nonzero;stroke:none"
               id="path4164" />
          </g>
          <g
             id="g4166"
             transform="translate(270.938,293.496)">
            <path
               d="m 0,0 c -2.188,-0.391 -4.375,-0.683 -6.563,-0.879 -2.187,-0.195 -4.297,-0.293 -6.328,-0.293 -6.797,0 -11.504,1.621 -14.121,4.864 -2.617,3.242 -3.926,9.433 -3.926,18.574 l 0,68.906 -11.016,0 0,14.414 11.016,0 0,37.969 18.516,0 0,-37.969 12.773,0 0,-14.414 -12.773,0 0,-65.742 c 0,-5.235 0.547,-8.379 1.64,-9.434 1.094,-1.054 3.672,-1.582 7.735,-1.582 l 3.164,0 L 0,0 Z"
               style="fill:#ebebeb;fill-opacity:1;fill-rule:nonzero;stroke:none"
               id="path4168" />
          </g>
          <g
             id="g4170"
             transform="translate(350.508,326.309)">
            <path
               d="m 0,0 c -1.016,-11.094 -4.336,-19.532 -9.961,-25.313 -5.625,-5.781 -13.359,-8.672 -23.203,-8.672 -10.86,0 -19.141,3.535 -24.844,10.606 -5.703,7.07 -8.555,17.363 -8.555,30.879 l 0,22.031 c 0,14.375 2.891,25.527 8.672,33.457 5.781,7.93 13.867,11.894 24.258,11.894 11.094,0 19.59,-3.769 25.488,-11.308 5.899,-7.539 8.848,-18.457 8.848,-32.754 l 0,-14.18 -48.516,0 0,-6.797 c 0,-9.843 1.27,-17.011 3.809,-21.504 2.539,-4.492 6.543,-6.738 12.012,-6.738 4.453,0 7.949,1.524 10.488,4.57 2.539,3.047 4.16,7.657 4.863,13.829 L 0,0 Z m -47.813,30.234 30.469,0 0,6.797 c 0,6.953 -1.309,12.402 -3.926,16.348 -2.617,3.945 -6.191,5.917 -10.722,5.917 -5.469,0 -9.473,-2.011 -12.012,-6.035 -2.539,-4.023 -3.809,-10.488 -3.809,-19.394 l 0,-3.633 z"
               style="fill:#ebebeb;fill-opacity:1;fill-rule:nonzero;stroke:none"
               id="path4172" />
          </g>
          <g
             id="g4174"
             transform="translate(424.102,401.191)">
            <path
               d="m 0,0 6.796,0 0,-19.336 -1.523,0 c -11.797,0 -20.547,-3.125 -26.25,-9.375 -5.703,-6.25 -8.555,-15.859 -8.555,-28.828 l 0,-35.039 15.586,0 0,-14.414 -46.758,0 0,14.414 12.774,0 0,76.055 -11.133,0 0,14.414 28.828,0 0,-21.562 c 3.516,7.812 7.813,13.71 12.891,17.695 C -12.266,-1.992 -6.485,0 0,0"
               style="fill:#ebebeb;fill-opacity:1;fill-rule:nonzero;stroke:none"
               id="path4176" />
          </g>
          <g
             id="g4178"
             transform="translate(438.281,294.199)">
            <path
               d="m 0,0 0,14.414 11.016,0 0,134.414 -11.016,0 0,14.649 29.531,0 0,-68.906 c 3.594,4.14 7.305,7.246 11.133,9.316 3.828,2.07 7.813,3.105 11.953,3.105 8.75,0 15.489,-3.359 20.215,-10.078 4.727,-6.718 7.09,-16.367 7.09,-28.945 l 0,-30 C 79.922,25.235 77.578,15.41 72.891,8.496 68.203,1.582 61.602,-1.875 53.086,-1.875 c -5.625,0 -10.39,1.192 -14.297,3.574 -3.906,2.383 -7.617,6.387 -11.133,12.012 L 27.656,0 0,0 Z m 29.531,41.485 c 0,-9.297 1.309,-16.055 3.926,-20.274 2.617,-4.219 6.739,-6.328 12.364,-6.328 5.234,0 9.14,1.973 11.718,5.918 2.578,3.945 3.868,9.98 3.868,18.105 l 0,30.469 c 0,7.188 -1.211,12.539 -3.633,16.055 -2.422,3.516 -6.094,5.273 -11.016,5.273 -5.703,0 -10,-1.953 -12.891,-5.859 -2.89,-3.906 -4.336,-9.727 -4.336,-17.461 l 0,-25.898 z"
               style="fill:#ebebeb;fill-opacity:1;fill-rule:nonzero;stroke:none"
               id="path4180" />
          </g>
          <g
             id="g4182"
             transform="translate(603.8669,359.707)">
            <path
               d="m 0,0 0,-25.898 c 0,-13.516 -2.93,-23.809 -8.789,-30.879 -5.859,-7.071 -14.375,-10.606 -25.547,-10.606 -11.172,0 -19.726,3.535 -25.664,10.606 -5.937,7.07 -8.906,17.363 -8.906,30.879 l 0,25.898 c 0,13.516 2.969,23.809 8.906,30.879 5.938,7.07 14.492,10.605 25.664,10.605 11.172,0 19.688,-3.535 25.547,-10.605 C -2.93,23.809 0,13.516 0,0 m -18.398,-2.344 c 0,9.844 -1.27,17.012 -3.809,21.504 -2.539,4.492 -6.582,6.738 -12.129,6.738 -5.468,0 -9.472,-2.246 -12.011,-6.738 -2.54,-4.492 -3.809,-11.66 -3.809,-21.504 l 0,-21.211 c 0,-9.843 1.269,-17.011 3.809,-21.504 2.539,-4.492 6.543,-6.738 12.011,-6.738 5.547,0 9.59,2.246 12.129,6.738 2.539,4.493 3.809,11.661 3.809,21.504 l 0,21.211 z"
               style="fill:#ebebeb;fill-opacity:1;fill-rule:nonzero;stroke:none"
               id="path4184" />
          </g>
          <g
             id="g4186"
             transform="translate(616.641,294.199)">
            <path
               d="m 0,0 0,14.414 11.015,0 0,134.414 -11.015,0 0,14.649 29.531,0 0,-106.641 34.805,34.805 -16.758,0 0,13.242 47.226,0 0,-14.414 -10.781,0 -34.805,-34.102 35.743,-41.953 11.25,0 0,-14.414 -45.586,0 0,14.414 12.539,0 -33.633,41.25 0,-41.25 11.016,0 L 40.547,0 0,0 Z"
               style="fill:#ebebeb;fill-opacity:1;fill-rule:nonzero;stroke:none"
               id="path4188" />
          </g>
          <g
             id="g4190"
             transform="translate(251.25,526.813)">
            <path
               d="m 0,0 0,14.883 21.094,0 0,133.008 -22.5,0 0,-29.297 -18.047,0 0,44.883 101.836,0 0,-44.883 -17.813,0 0,29.297 -22.851,0 0,-133.008 21.211,0 L 62.93,0 0,0 Z"
               style="fill:#ebebeb;fill-opacity:1;fill-rule:nonzero;stroke:none"
               id="path4192" />
          </g>
          <g
             id="g4194"
             transform="translate(345.352,690.29)">
            <path
               d="m 0,0 29.531,0 0,-69.61 c 3.359,4.219 7.285,7.461 11.777,9.727 4.492,2.266 9.356,3.398 14.59,3.398 8.672,0 14.961,-2.324 18.867,-6.972 3.906,-4.649 5.86,-12.129 5.86,-22.442 l 0,-63.164 11.015,0 0,-14.414 -40.547,0 0,14.414 11.133,0 0,59.063 c 0,6.328 -0.898,10.898 -2.695,13.711 -1.797,2.812 -4.688,4.219 -8.672,4.219 -3.984,0 -7.734,-0.918 -11.25,-2.754 -3.516,-1.836 -6.875,-4.668 -10.078,-8.496 l 0,-65.743 11.015,0 0,-14.414 -40.546,0 0,14.414 11.015,0 0,134.414 L 0,-14.649 0,0 Z"
               style="fill:#ebebeb;fill-opacity:1;fill-rule:nonzero;stroke:none"
               id="path4196" />
          </g>
          <g
             id="g4198"
             transform="translate(517.5,558.923)">
            <path
               d="m 0,0 c -1.016,-11.094 -4.336,-19.532 -9.961,-25.313 -5.625,-5.781 -13.359,-8.672 -23.203,-8.672 -10.859,0 -19.141,3.535 -24.844,10.606 -5.703,7.07 -8.554,17.363 -8.554,30.879 l 0,22.031 c 0,14.375 2.89,25.527 8.671,33.457 5.782,7.93 13.868,11.894 24.258,11.894 11.094,0 19.59,-3.769 25.488,-11.308 5.899,-7.539 8.848,-18.457 8.848,-32.754 l 0,-14.18 -48.515,0 0,-6.797 c 0,-9.843 1.269,-17.011 3.808,-21.503 2.539,-4.493 6.543,-6.739 12.012,-6.739 4.453,0 7.949,1.524 10.488,4.571 2.539,3.046 4.16,7.656 4.863,13.828 L 0,0 Z m -47.812,30.234 30.468,0 0,6.797 c 0,6.953 -1.308,12.402 -3.926,16.348 -2.617,3.945 -6.191,5.918 -10.722,5.918 -5.469,0 -9.473,-2.012 -12.012,-6.036 -2.539,-4.023 -3.808,-10.488 -3.808,-19.394 l 0,-3.633 z"
               style="fill:#ebebeb;fill-opacity:1;fill-rule:nonzero;stroke:none"
               id="path4200" />
          </g>
        </g>
      </g>
      <text
         transform="matrix(1,0,0,-1,318.3823,142)"
         style="font-variant:normal;font-weight:normal;font-stretch:condensed;font-size:70px;font-family:'Roboto Cn';-inkscape-font-specification:Roboto-Condensed;writing-mode:lr-tb;fill:#ebebeb;fill-opacity:1;fill-rule:nonzero;stroke:none"
         id="text4202">
        <tspan
           x="0 34.439999 50.330002 84.769997"
           y="0"
           id="tspan4204">blog</tspan>
      </text>
      <g
         id="g4206">
        <g
           id="g4208"
           clip-path="url(#clipPath4210)">
          <path
             d="m 298.689,164.5 -54.8,0 0,1.458 54.8,0 0,-1.458 z"
             style="fill:#ebebeb;fill-opacity:1;fill-rule:nonzero;stroke:none"
             id="path4214" />
          <path
             d="m 511.97,165.229 -54.8,0 0,1.458 54.8,0 0,-1.458 z"
             style="fill:#ebebeb;fill-opacity:1;fill-rule:nonzero;stroke:none"
             id="path4216" />
        </g>
      </g>
    </g>
  </g>
</svg>
